# xmcd
#
# Track frame offsets:
#	150
#	1095
#	23292
#	42075
#	86337
#	119532
#	120707
#	141862
#	142965
#	165690
#	196640
#	219455
#	242147
#	286295
#
# Disc length: 4528 seconds
#
# Revision: 0
# Processed by: cddbd v1.5.2PL0 Copyright (c) Steve Scherf et al.
# Submitted via: dBpowerAMP V4.0
#
DISCID=b111ae0e
DTITLE=Papa Mali  - Thunder Chicken  
DYEAR=1999
DGENRE=Blues
TTITLE0=All Right You Got It
TTITLE1=Bon Ton Roulet
TTITLE2=A Man Of Many Words
TTITLE3=Walk On Guilded Splinters
TTITLE4=I'm The One
TTITLE5=La Bebida Por Su Vida 
TTITLE6=Keep Happy
TTITLE7=Fleabite Junior the Third 
TTITLE8=If I Ever Get Right
TTITLE9=Fire Water
TTITLE10=Cottonfields and Bayous
TTITLE11=Skeleton Bug
TTITLE12=South Austin Lullaby
TTITLE13=DATA
EXTD=
EXTT0=
EXTT1=
EXTT2=
EXTT3=
EXTT4=
EXTT5=
EXTT6=
EXTT7=
EXTT8=
EXTT9=
EXTT10=
EXTT11=
EXTT12=
EXTT13=
PLAYORDER=
